<svg xmlns="http://www.w3.org/2000/svg" viewBox="0 0 64 64">
  <defs><linearGradient id="g" x1="0" y1="0" x2="1" y2="1"><stop offset="0" stop-color="#4f46e5"/><stop offset="1" stop-color="#22c55e"/></linearGradient></defs>
  <rect x="4" y="4" width="56" height="56" rx="14" fill="url(#g)"/>
  <path d="M18 36c2 6 10 10 18 6 6-3 10-10 7-18-1-2-3-3-5-3-3 0-5 2-6 5-2-3-5-5-8-5-3 0-5 1-6 3-2 4-1 9 2 12 1 1 2 0 2 0 1 0 2-1 2-2-2-3-2-6-1-8 1-1 2-1 3-1 2 0 4 1 5 3-1 2-1 4 0 6 1 2 3 3 5 3 2 0 4-1 5-3 1 4-1 8-5 10-6 3-13-1-14-8 0-1-1-1-2-1z" fill="#fff"/>
</svg>